<svg width="169" height="26" viewBox="0 0 169 26" fill="none" xmlns="http://www.w3.org/2000/svg">
<path d="M1.25 16.9V15.6H0V13H1.25V11.7H3.75V16.9H1.25ZM18.75 13V11.7H16.25V16.9H18.75V15.6H20V13H18.75ZM17.5 5.2H14.825C14.375 3.38 13 1.95 11.25 1.482V0H8.75V1.482C7 1.95 5.625 3.38 5.175 5.2H2.5V7.8H17.5V5.2ZM17.5 26H2.5C2.5 24.57 3.625 23.4 5 23.4V9.1H15V23.4C15.663 23.4 16.2989 23.6739 16.7678 24.1615C17.2366 24.6491 17.5 25.3104 17.5 26ZM7.5 14.3C7.5 14.9896 7.76339 15.6509 8.23223 16.1385C8.70107 16.6261 9.33696 16.9 10 16.9C10.663 16.9 11.2989 16.6261 11.7678 16.1385C12.2366 15.6509 12.5 14.9896 12.5 14.3C12.5 12.857 11.3875 11.7 10 11.7C8.6125 11.7 7.5 12.87 7.5 14.3Z" fill="#00C5F0"/>
<path fill-rule="evenodd" clip-rule="evenodd" d="M1.25 13H0V15.6H1.25V16.9H3.75V11.7H1.25V13ZM1.79054 12.2532V13.5532H0.540541V15.0468H1.79054V16.3468H3.20946V12.2532H1.79054ZM18.2095 13.5532V12.2532H16.7905V16.3468H18.2095V15.0468H19.4595V13.5532H18.2095ZM20 13V15.6H18.75V16.9H16.25V11.7H18.75V13H20ZM14.4042 5.75319L14.301 5.3357C13.8984 3.7077 12.6694 2.43335 11.1133 2.01722L10.7095 1.90921V0.553191H9.29054V1.90921L8.88666 2.01722C7.33064 2.43335 6.10155 3.7077 5.69902 5.3357L5.5958 5.75319H3.04054V7.24681H16.9595V5.75319H14.4042ZM17.5 5.2V7.8H2.5V5.2H5.175C5.625 3.38 7 1.95 8.75 1.482V0H11.25V1.482C13 1.95 14.375 3.38 14.825 5.2H17.5ZM5 23.4C3.80738 23.4 2.80285 24.2802 2.55734 25.4468C2.51979 25.6252 2.5 25.8103 2.5 26H17.5C17.5 25.8125 17.4805 25.6272 17.4428 25.4468C17.3416 24.9637 17.1092 24.5166 16.7678 24.1615C16.2989 23.6739 15.663 23.4 15 23.4V9.1H5V23.4ZM5.54054 9.65319V23.9532H5C4.11256 23.9532 3.34736 24.5838 3.1137 25.4468H16.8865C16.796 25.1098 16.6234 24.8001 16.3825 24.5495C16.0143 24.1666 15.5168 23.9532 15 23.9532H14.4595V9.65319H5.54054ZM7.84695 16.5265C7.27772 15.9345 6.95946 15.1334 6.95946 14.3C6.95946 12.5747 8.30406 11.1468 10 11.1468C11.6942 11.1468 13.0405 12.5599 13.0405 14.3C13.0405 15.1334 12.7223 15.9345 12.153 16.5265C11.5835 17.1188 10.8092 17.4532 10 17.4532C9.19077 17.4532 8.41647 17.1188 7.84695 16.5265ZM8.23223 16.1385C7.76339 15.6509 7.5 14.9896 7.5 14.3C7.5 12.87 8.6125 11.7 10 11.7C11.3875 11.7 12.5 12.857 12.5 14.3C12.5 14.9896 12.2366 15.6509 11.7678 16.1385C11.2989 16.6261 10.663 16.9 10 16.9C9.33696 16.9 8.70107 16.6261 8.23223 16.1385Z" fill="black"/>
<path d="M26 19.1252V16.589H28.0868V9.33268H26V6.79648H33.1976V9.33268H31.1108V16.589H33.1976V19.1252H26Z" fill="white"/>
<path d="M35.7564 19.1252V9.77299H38.4621L38.5682 11.6751L37.9846 11.8865C38.1143 11.4638 38.3442 11.0822 38.6743 10.7417C39.0162 10.3894 39.423 10.1076 39.8946 9.89628C40.3662 9.68493 40.8613 9.57926 41.3801 9.57926C42.0875 9.57926 42.6828 9.72603 43.1662 10.0196C43.6496 10.3014 44.0092 10.7299 44.245 11.3053C44.4926 11.8689 44.6164 12.5675 44.6164 13.4012V19.1252H41.7691V13.6125C41.7691 13.2368 41.7161 12.9256 41.61 12.6791C41.5039 12.4325 41.3447 12.2505 41.1325 12.1331C40.9203 12.0157 40.655 11.9628 40.3367 11.9746C40.0891 11.9746 39.8592 12.0157 39.647 12.0978C39.4348 12.1683 39.2461 12.2798 39.0811 12.4325C38.9278 12.5734 38.8099 12.7378 38.7274 12.9256C38.6449 13.1135 38.6036 13.3249 38.6036 13.5597V19.1252H37.1711C36.8646 19.1252 36.5875 19.1252 36.34 19.1252C36.1042 19.1252 35.9096 19.1252 35.7564 19.1252Z" fill="white"/>
<path d="M51.1197 19.3014C50.2119 19.3014 49.3925 19.09 48.6616 18.6673C47.9424 18.2446 47.3765 17.6693 46.9638 16.9413C46.5512 16.2016 46.3449 15.3738 46.3449 14.4579C46.3449 13.5186 46.5512 12.6849 46.9638 11.9569C47.3765 11.2172 47.9424 10.636 48.6616 10.2133C49.3925 9.79061 50.2119 9.57926 51.1197 9.57926C51.9568 9.57926 52.7231 9.7319 53.4187 10.0372C54.1261 10.3307 54.6802 10.7358 55.0811 11.2524L53.5425 13.1194C53.3893 12.9198 53.2006 12.7378 52.9766 12.5734C52.7526 12.409 52.505 12.2798 52.2339 12.1859C51.9627 12.092 51.6797 12.045 51.385 12.045C50.937 12.045 50.542 12.1507 50.2001 12.362C49.8582 12.5616 49.593 12.8434 49.4043 13.2074C49.2157 13.5714 49.1214 13.9824 49.1214 14.4403C49.1214 14.8865 49.2157 15.2916 49.4043 15.6556C49.6047 16.0078 49.8759 16.2896 50.2178 16.501C50.5597 16.7123 50.9429 16.818 51.3673 16.818C51.6738 16.818 51.9568 16.7769 52.2162 16.6947C52.4755 16.6125 52.7113 16.4951 52.9236 16.3425C53.1476 16.1898 53.3539 16.0078 53.5425 15.7965L55.0811 17.6634C54.6802 18.1566 54.1202 18.5558 53.401 18.8611C52.6819 19.1546 51.9214 19.3014 51.1197 19.3014Z" fill="white"/>
<path d="M56.7951 19.1252V9.77299H59.6423V19.1252H56.7951ZM58.2276 7.92368C57.6852 7.92368 57.2608 7.80039 56.9543 7.55382C56.6595 7.2955 56.5122 6.93151 56.5122 6.46184C56.5122 6.0274 56.6654 5.67515 56.972 5.40509C57.2785 5.13503 57.697 5 58.2276 5C58.7463 5 59.1531 5.12916 59.4478 5.38748C59.7543 5.63405 59.9076 5.99217 59.9076 6.46184C59.9076 6.89628 59.7543 7.24853 59.4478 7.51859C59.1531 7.78865 58.7463 7.92368 58.2276 7.92368Z" fill="white"/>
<path d="M65.8901 19.3014C65.0884 19.3014 64.3633 19.0959 63.7149 18.6849C63.0783 18.274 62.5772 17.7045 62.2117 16.9765C61.8462 16.2368 61.6635 15.3973 61.6635 14.4579C61.6635 13.5186 61.8462 12.6849 62.2117 11.9569C62.5772 11.2172 63.0783 10.636 63.7149 10.2133C64.3633 9.79061 65.0943 9.57926 65.9078 9.57926C66.3322 9.57926 66.739 9.64384 67.128 9.77299C67.5289 9.90215 67.8826 10.0783 68.1891 10.3014C68.5074 10.5245 68.7668 10.7769 68.9672 11.0587C69.1676 11.3405 69.2914 11.6399 69.3386 11.9569L68.6489 12.1155V6.09198H71.4961V19.1252H68.8434L68.6843 17.0117L69.2502 17.1174C69.2266 17.3992 69.1205 17.6751 68.9318 17.9452C68.7432 18.2035 68.4897 18.4384 68.1714 18.6497C67.8649 18.8493 67.5171 19.0078 67.128 19.1252C66.739 19.2427 66.3263 19.3014 65.8901 19.3014ZM66.5975 16.9589C67.0337 16.9589 67.4051 16.8591 67.7116 16.6595C68.0299 16.4481 68.2775 16.1546 68.4544 15.7789C68.6312 15.4031 68.7196 14.9628 68.7196 14.4579C68.7196 13.9413 68.6312 13.4951 68.4544 13.1194C68.2775 12.7436 68.0299 12.456 67.7116 12.2564C67.4051 12.045 67.0337 11.9393 66.5975 11.9393C66.1731 11.9393 65.8017 12.045 65.4834 12.2564C65.1768 12.456 64.9351 12.7436 64.7583 13.1194C64.5814 13.4951 64.493 13.9413 64.493 14.4579C64.493 14.9628 64.5814 15.4031 64.7583 15.7789C64.9351 16.1546 65.1768 16.4481 65.4834 16.6595C65.8017 16.8591 66.1731 16.9589 66.5975 16.9589Z" fill="white"/>
<path d="M78.363 19.3014C77.3255 19.3014 76.4177 19.0959 75.6396 18.6849C74.8732 18.274 74.2778 17.7104 73.8534 16.9941C73.4408 16.2661 73.2345 15.4384 73.2345 14.5108C73.2345 13.7828 73.3524 13.1194 73.5882 12.5205C73.8239 11.91 74.1541 11.3875 74.5785 10.953C75.0147 10.5186 75.5217 10.184 76.0994 9.94912C76.6889 9.70254 77.3314 9.57926 78.027 9.57926C78.6872 9.57926 79.2885 9.69667 79.8308 9.93151C80.3731 10.1663 80.8447 10.4951 81.2456 10.9178C81.6464 11.3405 81.953 11.8395 82.1652 12.4149C82.3774 12.9902 82.4776 13.6184 82.4658 14.2994L82.4481 15.0744H74.9852L74.5608 13.4716H80.1315L79.8308 13.7887V13.4364C79.8072 13.1429 79.7129 12.8904 79.5479 12.6791C79.3946 12.456 79.1883 12.2798 78.9289 12.1507C78.6813 12.0215 78.3984 11.9569 78.08 11.9569C77.6085 11.9569 77.2076 12.0509 76.8775 12.2387C76.5592 12.4149 76.3175 12.6732 76.1524 13.0137C75.9874 13.3542 75.9048 13.7769 75.9048 14.2818C75.9048 14.7867 76.0109 15.2329 76.2232 15.6204C76.4472 16.0078 76.7655 16.3072 77.1781 16.5186C77.6026 16.7299 78.1036 16.8356 78.6813 16.8356C79.0704 16.8356 79.4241 16.7769 79.7424 16.6595C80.0607 16.5421 80.4026 16.3425 80.7681 16.0607L82.0944 17.9276C81.729 18.2329 81.3399 18.4912 80.9273 18.7025C80.5146 18.9022 80.0902 19.0489 79.654 19.1429C79.2295 19.2485 78.7992 19.3014 78.363 19.3014Z" fill="white"/>
<path d="M84.2681 19.1252V9.77299H86.9739L87.08 11.6751L86.4964 11.8865C86.6261 11.4638 86.856 11.0822 87.1861 10.7417C87.528 10.3894 87.9347 10.1076 88.4063 9.89628C88.8779 9.68493 89.3731 9.57926 89.8918 9.57926C90.5992 9.57926 91.1946 9.72603 91.678 10.0196C92.1614 10.3014 92.5209 10.7299 92.7567 11.3053C93.0043 11.8689 93.1281 12.5675 93.1281 13.4012V19.1252H90.2809V13.6125C90.2809 13.2368 90.2278 12.9256 90.1217 12.6791C90.0156 12.4325 89.8565 12.2505 89.6442 12.1331C89.432 12.0157 89.1668 11.9628 88.8484 11.9746C88.6009 11.9746 88.371 12.0157 88.1587 12.0978C87.9465 12.1683 87.7579 12.2798 87.5928 12.4325C87.4396 12.5734 87.3217 12.7378 87.2391 12.9256C87.1566 13.1135 87.1153 13.3249 87.1153 13.5597V19.1252H85.6829C85.3764 19.1252 85.0993 19.1252 84.8517 19.1252C84.6159 19.1252 84.4214 19.1252 84.2681 19.1252Z" fill="white"/>
<path d="M99.6315 19.3014C98.7237 19.3014 97.9043 19.09 97.1733 18.6673C96.4542 18.2446 95.8883 17.6693 95.4756 16.9413C95.063 16.2016 94.8566 15.3738 94.8566 14.4579C94.8566 13.5186 95.063 12.6849 95.4756 11.9569C95.8883 11.2172 96.4542 10.636 97.1733 10.2133C97.9043 9.79061 98.7237 9.57926 99.6315 9.57926C100.469 9.57926 101.235 9.7319 101.93 10.0372C102.638 10.3307 103.192 10.7358 103.593 11.2524L102.054 13.1194C101.901 12.9198 101.712 12.7378 101.488 12.5734C101.264 12.409 101.017 12.2798 100.746 12.1859C100.474 12.092 100.192 12.045 99.8968 12.045C99.4488 12.045 99.0538 12.1507 98.7119 12.362C98.37 12.5616 98.1047 12.8434 97.9161 13.2074C97.7274 13.5714 97.6331 13.9824 97.6331 14.4403C97.6331 14.8865 97.7274 15.2916 97.9161 15.6556C98.1165 16.0078 98.3877 16.2896 98.7296 16.501C99.0715 16.7123 99.4546 16.818 99.8791 16.818C100.186 16.818 100.469 16.7769 100.728 16.6947C100.987 16.6125 101.223 16.4951 101.435 16.3425C101.659 16.1898 101.866 16.0078 102.054 15.7965L103.593 17.6634C103.192 18.1566 102.632 18.5558 101.913 18.8611C101.194 19.1546 100.433 19.3014 99.6315 19.3014Z" fill="white"/>
<path d="M105.307 19.1252V9.77299H108.154V19.1252H105.307ZM106.739 7.92368C106.197 7.92368 105.773 7.80039 105.466 7.55382C105.171 7.2955 105.024 6.93151 105.024 6.46184C105.024 6.0274 105.177 5.67515 105.484 5.40509C105.79 5.13503 106.209 5 106.739 5C107.258 5 107.665 5.12916 107.96 5.38748C108.266 5.63405 108.419 5.99217 108.419 6.46184C108.419 6.89628 108.266 7.24853 107.96 7.51859C107.665 7.78865 107.258 7.92368 106.739 7.92368Z" fill="white"/>
<path d="M115.834 19.1252V13.3836C115.834 12.9022 115.699 12.5499 115.428 12.3268C115.168 12.092 114.803 11.9746 114.331 11.9746C113.871 11.9746 113.459 12.0626 113.093 12.2387C112.74 12.4031 112.398 12.6791 112.067 13.0665L110.37 11.4286C110.936 10.8532 111.584 10.4012 112.315 10.0724C113.046 9.74364 113.842 9.57926 114.702 9.57926C115.492 9.57926 116.176 9.69667 116.754 9.93151C117.332 10.1663 117.78 10.5245 118.098 11.0059C118.416 11.4873 118.575 12.0978 118.575 12.8376V19.1252H115.834ZM113.394 19.3014C112.804 19.3014 112.268 19.184 111.785 18.9491C111.313 18.7143 110.936 18.3914 110.653 17.9804C110.382 17.5577 110.246 17.0646 110.246 16.501C110.246 16.0196 110.334 15.5969 110.511 15.2329C110.688 14.8689 110.947 14.5695 111.289 14.3346C111.643 14.0881 112.079 13.9061 112.598 13.7887C113.129 13.6595 113.742 13.5949 114.437 13.5949H117.284L117.125 15.3738H114.508C114.26 15.3738 114.042 15.3973 113.854 15.4442C113.665 15.4795 113.506 15.544 113.376 15.638C113.246 15.7202 113.146 15.82 113.076 15.9374C113.017 16.0548 112.987 16.1957 112.987 16.3601C112.987 16.5362 113.034 16.6888 113.129 16.818C113.223 16.9472 113.347 17.047 113.5 17.1174C113.665 17.1879 113.854 17.2231 114.066 17.2231C114.372 17.2231 114.661 17.1761 114.932 17.0822C115.215 16.9765 115.463 16.8297 115.675 16.6419C115.899 16.454 116.076 16.2368 116.206 15.9902L116.701 17.2583C116.453 17.6575 116.153 18.0098 115.799 18.3151C115.457 18.6204 115.08 18.8611 114.667 19.0372C114.266 19.2133 113.842 19.3014 113.394 19.3014Z" fill="white"/>
<path d="M124.012 19.3014C123.116 19.3014 122.314 19.1605 121.607 18.8787C120.899 18.5851 120.333 18.1859 119.909 17.681L121.642 16.2016C122.008 16.5656 122.42 16.8356 122.88 17.0117C123.34 17.1761 123.776 17.2583 124.189 17.2583C124.342 17.2583 124.477 17.2407 124.595 17.2055C124.713 17.1703 124.813 17.1233 124.896 17.0646C124.99 16.9941 125.061 16.9178 125.108 16.8356C125.155 16.7417 125.179 16.636 125.179 16.5186C125.179 16.2838 125.079 16.1076 124.878 15.9902C124.784 15.9315 124.613 15.8611 124.365 15.7789C124.118 15.6849 123.8 15.591 123.411 15.4971C122.856 15.3562 122.373 15.1859 121.96 14.9863C121.56 14.7867 121.229 14.5577 120.97 14.2994C120.734 14.0646 120.551 13.7945 120.422 13.4892C120.304 13.184 120.245 12.8434 120.245 12.4677C120.245 11.8924 120.416 11.3875 120.758 10.953C121.112 10.5186 121.571 10.184 122.137 9.94912C122.703 9.70254 123.316 9.57926 123.976 9.57926C124.495 9.57926 124.984 9.63796 125.444 9.75538C125.916 9.8728 126.352 10.0372 126.753 10.2485C127.166 10.4599 127.531 10.7123 127.849 11.0059L126.346 12.6791C126.146 12.4795 125.91 12.3033 125.639 12.1507C125.368 11.9863 125.096 11.8571 124.825 11.7632C124.554 11.6575 124.301 11.6047 124.065 11.6047C123.888 11.6047 123.729 11.6223 123.587 11.6575C123.458 11.681 123.346 11.728 123.251 11.7984C123.169 11.8571 123.104 11.9335 123.057 12.0274C123.01 12.1096 122.986 12.2035 122.986 12.3092C122.986 12.4384 123.016 12.5558 123.074 12.6614C123.145 12.7554 123.24 12.8434 123.357 12.9256C123.464 12.9843 123.646 13.0607 123.906 13.1546C124.177 13.2485 124.531 13.3542 124.967 13.4716C125.521 13.6243 125.992 13.8004 126.382 14C126.782 14.1879 127.101 14.411 127.336 14.6693C127.537 14.8689 127.678 15.1037 127.761 15.3738C127.855 15.6321 127.902 15.9139 127.902 16.2192C127.902 16.818 127.731 17.3523 127.39 17.8219C127.059 18.2798 126.6 18.6438 126.01 18.9139C125.432 19.1722 124.766 19.3014 124.012 19.3014Z" fill="white"/>
<path d="M133.994 19.1252L138.893 6.79648H141.457L146.32 19.1252H143.278L140.926 12.8728C140.844 12.6262 140.749 12.362 140.643 12.0802C140.549 11.7984 140.455 11.5049 140.36 11.1996C140.266 10.8943 140.178 10.6008 140.095 10.319C140.013 10.0372 139.942 9.77299 139.883 9.52642L140.396 9.50881C140.325 9.80235 140.248 10.09 140.166 10.3718C140.083 10.6536 139.995 10.9354 139.901 11.2172C139.806 11.499 139.706 11.7808 139.6 12.0626C139.506 12.3327 139.405 12.6145 139.299 12.908L136.965 19.1252H133.994ZM136.328 16.7652L137.283 14.4755H142.942L143.897 16.7652H136.328Z" fill="white"/>
<path d="M147.58 23V9.77299H150.286L150.41 11.8337L149.862 11.6751C149.932 11.2994 150.127 10.9589 150.445 10.6536C150.775 10.3366 151.182 10.0841 151.666 9.89628C152.149 9.69667 152.662 9.59687 153.204 9.59687C154.006 9.59687 154.719 9.80235 155.344 10.2133C155.969 10.6243 156.458 11.1996 156.812 11.9393C157.177 12.6673 157.36 13.5069 157.36 14.4579C157.36 15.3855 157.177 16.2133 156.812 16.9413C156.458 17.6693 155.963 18.2446 155.326 18.6673C154.701 19.0783 153.988 19.2838 153.186 19.2838C152.644 19.2838 152.131 19.184 151.648 18.9843C151.164 18.773 150.758 18.5029 150.428 18.1742C150.097 17.8454 149.885 17.4873 149.791 17.0998L150.445 16.8356V23H147.58ZM152.497 16.8885C152.921 16.8885 153.287 16.7887 153.593 16.589C153.911 16.3894 154.153 16.1076 154.318 15.7436C154.495 15.3679 154.583 14.9393 154.583 14.4579C154.583 13.9648 154.495 13.5362 154.318 13.1722C154.153 12.7965 153.911 12.5088 153.593 12.3092C153.287 12.0978 152.921 11.9922 152.497 11.9922C152.06 11.9922 151.683 12.0978 151.365 12.3092C151.047 12.5088 150.799 12.7906 150.622 13.1546C150.445 13.5186 150.357 13.953 150.357 14.4579C150.357 14.9393 150.445 15.3679 150.622 15.7436C150.799 16.1076 151.047 16.3894 151.365 16.589C151.683 16.7887 152.06 16.8885 152.497 16.8885Z" fill="white"/>
<path d="M159.22 23V9.77299H161.926L162.05 11.8337L161.502 11.6751C161.572 11.2994 161.767 10.9589 162.085 10.6536C162.415 10.3366 162.822 10.0841 163.306 9.89628C163.789 9.69667 164.302 9.59687 164.844 9.59687C165.646 9.59687 166.359 9.80235 166.984 10.2133C167.609 10.6243 168.098 11.1996 168.452 11.9393C168.817 12.6673 169 13.5069 169 14.4579C169 15.3855 168.817 16.2133 168.452 16.9413C168.098 17.6693 167.603 18.2446 166.966 18.6673C166.341 19.0783 165.628 19.2838 164.826 19.2838C164.284 19.2838 163.771 19.184 163.288 18.9843C162.805 18.773 162.398 18.5029 162.068 18.1742C161.738 17.8454 161.525 17.4873 161.431 17.0998L162.085 16.8356V23H159.22ZM164.137 16.8885C164.561 16.8885 164.927 16.7887 165.233 16.589C165.552 16.3894 165.793 16.1076 165.958 15.7436C166.135 15.3679 166.224 14.9393 166.224 14.4579C166.224 13.9648 166.135 13.5362 165.958 13.1722C165.793 12.7965 165.552 12.5088 165.233 12.3092C164.927 12.0978 164.561 11.9922 164.137 11.9922C163.701 11.9922 163.323 12.0978 163.005 12.3092C162.687 12.5088 162.439 12.7906 162.262 13.1546C162.085 13.5186 161.997 13.953 161.997 14.4579C161.997 14.9393 162.085 15.3679 162.262 15.7436C162.439 16.1076 162.687 16.3894 163.005 16.589C163.323 16.7887 163.701 16.8885 164.137 16.8885Z" fill="white"/>
</svg>
