<svg width="32" height="32" viewBox="0 0 32 32" fill="none" xmlns="http://www.w3.org/2000/svg">
<path fill-rule="evenodd" clip-rule="evenodd" d="M6.93333 25.776C5.58586 24.5293 4.51113 23.0171 3.77681 21.3346C3.0425 19.6521 2.66452 17.8358 2.66667 16C2.66667 8.63602 8.636 2.66669 16 2.66669C23.364 2.66669 29.3333 8.63602 29.3333 16C29.3355 17.8358 28.9575 19.6521 28.2232 21.3346C27.4889 23.0171 26.4141 24.5293 25.0667 25.776C24.7502 24.491 24.1647 23.2878 23.3488 22.2459C22.5328 21.2041 21.505 20.3472 20.3333 19.732C21.3686 18.8461 22.1075 17.6641 22.4506 16.3454C22.7936 15.0267 22.7244 13.6345 22.2521 12.3564C21.7799 11.0782 20.9273 9.97549 19.8092 9.19665C18.6912 8.4178 17.3613 8.00027 15.9987 8.00027C14.6361 8.00027 13.3062 8.4178 12.1881 9.19665C11.07 9.97549 10.2175 11.0782 9.7452 12.3564C9.27294 13.6345 9.20369 15.0267 9.54676 16.3454C9.88982 17.6641 10.6287 18.8461 11.664 19.732C10.4928 20.3475 9.46554 21.2045 8.65006 22.2464C7.83458 23.2882 7.24945 24.4913 6.93333 25.776ZM9.34667 27.5574C11.3696 28.7244 13.6646 29.337 16 29.3334C18.4227 29.3334 20.6933 28.6867 22.6533 27.5574C22.5462 25.8656 21.7986 24.2782 20.5626 23.118C19.3267 21.9579 17.6952 21.3121 16 21.3121C14.3048 21.3121 12.6733 21.9579 11.4374 23.118C10.2014 24.2782 9.45382 25.8656 9.34667 27.5574ZM16 10.6667C15.4747 10.6667 14.9546 10.7702 14.4693 10.9712C13.984 11.1722 13.543 11.4668 13.1716 11.8383C12.8001 12.2097 12.5055 12.6507 12.3045 13.136C12.1035 13.6213 12 14.1414 12 14.6667C12 15.192 12.1035 15.7121 12.3045 16.1974C12.5055 16.6827 12.8001 17.1237 13.1716 17.4951C13.543 17.8665 13.984 18.1612 14.4693 18.3622C14.9546 18.5632 15.4747 18.6667 16 18.6667C17.0609 18.6667 18.0783 18.2453 18.8284 17.4951C19.5786 16.745 20 15.7276 20 14.6667C20 13.6058 19.5786 12.5884 18.8284 11.8383C18.0783 11.0881 17.0609 10.6667 16 10.6667Z" fill="#5316A0"/>
</svg>
